<svg xmlns="http://www.w3.org/2000/svg" xmlns:xlink="http://www.w3.org/1999/xlink" width="100" zoomAndPan="magnify" viewBox="0 0 75 30.000001" height="40" preserveAspectRatio="xMidYMid meet" version="1.0"><defs><filter x="0%" y="0%" width="100%" height="100%" id="a5d69f8fdd"><feColorMatrix values="0 0 0 0 1 0 0 0 0 1 0 0 0 0 1 0 0 0 1 0" color-interpolation-filters="sRGB"/></filter><g/><clipPath id="1e8f31e456"><path d="M 4.117188 7.71875 L 20.074219 7.71875 L 20.074219 21.507812 L 4.117188 21.507812 Z M 4.117188 7.71875 " clip-rule="nonzero"/></clipPath><clipPath id="c1b8e545d2"><path d="M 4.117188 13.191406 C 4.117188 10.167969 6.5 7.71875 9.4375 7.71875 L 14.757812 7.71875 C 17.695312 7.71875 20.074219 10.167969 20.074219 13.191406 C 20.074219 16.214844 17.695312 18.664062 14.757812 18.664062 L 12.730469 18.664062 L 13.847656 20.222656 C 14.28125 20.828125 13.621094 21.625 12.96875 21.273438 L 7.171875 18.144531 C 5.367188 17.269531 4.117188 15.378906 4.117188 13.191406 M 6.351562 13.191406 C 6.351562 12.769531 6.429688 12.363281 6.585938 11.976562 C 6.742188 11.585938 6.964844 11.242188 7.253906 10.945312 C 7.542969 10.648438 7.878906 10.417969 8.257812 10.257812 C 8.632812 10.097656 9.027344 10.015625 9.4375 10.015625 L 14.757812 10.015625 C 15.164062 10.015625 15.558594 10.097656 15.9375 10.257812 C 16.316406 10.417969 16.648438 10.648438 16.9375 10.945312 C 17.226562 11.242188 17.449219 11.585938 17.605469 11.976562 C 17.761719 12.363281 17.84375 12.769531 17.84375 13.191406 C 17.84375 14.945312 16.460938 16.363281 14.757812 16.363281 L 9.4375 16.363281 C 7.734375 16.363281 6.351562 14.945312 6.351562 13.191406 " clip-rule="evenodd"/></clipPath><radialGradient gradientTransform="matrix(0.590614, 0.818164, -0.787445, 0.601562, 9.064589, 13.573806)" gradientUnits="userSpaceOnUse" r="7.925983" cx="0" id="96d75f5e51" cy="0" fx="0" fy="0"><stop stop-opacity="1" stop-color="rgb(19.975281%, 99.858093%, 73.197937%)" offset="0"/><stop stop-opacity="1" stop-color="rgb(19.932556%, 99.612427%, 73.020935%)" offset="0.015625"/><stop stop-opacity="1" stop-color="rgb(19.895935%, 99.401855%, 72.869873%)" offset="0.0273438"/><stop stop-opacity="1" stop-color="rgb(19.859314%, 99.189758%, 72.718811%)" offset="0.0390625"/><stop stop-opacity="1" stop-color="rgb(19.824219%, 98.979187%, 72.567749%)" offset="0.0507812"/><stop stop-opacity="1" stop-color="rgb(19.787598%, 98.768616%, 72.416687%)" offset="0.0625"/><stop stop-opacity="1" stop-color="rgb(19.750977%, 98.558044%, 72.265625%)" offset="0.0742188"/><stop stop-opacity="1" stop-color="rgb(19.714355%, 98.347473%, 72.114563%)" offset="0.0859375"/><stop stop-opacity="1" stop-color="rgb(19.677734%, 98.135376%, 71.963501%)" offset="0.0976562"/><stop stop-opacity="1" stop-color="rgb(19.641113%, 97.924805%, 71.812439%)" offset="0.109375"/><stop stop-opacity="1" stop-color="rgb(19.606018%, 97.714233%, 71.661377%)" offset="0.121094"/><stop stop-opacity="1" stop-color="rgb(19.569397%, 97.503662%, 71.510315%)" offset="0.132812"/><stop stop-opacity="1" stop-color="rgb(19.532776%, 97.291565%, 71.359253%)" offset="0.144531"/><stop stop-opacity="1" stop-color="rgb(19.496155%, 97.080994%, 71.206665%)" offset="0.15625"/><stop stop-opacity="1" stop-color="rgb(19.459534%, 96.870422%, 71.055603%)" offset="0.167969"/><stop stop-opacity="1" stop-color="rgb(19.424438%, 96.659851%, 70.904541%)" offset="0.179688"/><stop stop-opacity="1" stop-color="rgb(19.387817%, 96.447754%, 70.753479%)" offset="0.191406"/><stop stop-opacity="1" stop-color="rgb(19.351196%, 96.237183%, 70.602417%)" offset="0.203125"/><stop stop-opacity="1" stop-color="rgb(19.314575%, 96.026611%, 70.451355%)" offset="0.214844"/><stop stop-opacity="1" stop-color="rgb(19.277954%, 95.81604%, 70.300293%)" offset="0.226562"/><stop stop-opacity="1" stop-color="rgb(19.242859%, 95.603943%, 70.149231%)" offset="0.238281"/><stop stop-opacity="1" stop-color="rgb(19.206238%, 95.393372%, 69.998169%)" offset="0.25"/><stop stop-opacity="1" stop-color="rgb(19.15741%, 95.11261%, 69.796753%)" offset="0.261719"/><stop stop-opacity="1" stop-color="rgb(19.096375%, 94.760132%, 69.544983%)" offset="0.28125"/><stop stop-opacity="1" stop-color="rgb(19.036865%, 94.40918%, 69.293213%)" offset="0.300781"/><stop stop-opacity="1" stop-color="rgb(18.97583%, 94.058228%, 69.039917%)" offset="0.320312"/><stop stop-opacity="1" stop-color="rgb(18.914795%, 93.70575%, 68.788147%)" offset="0.339844"/><stop stop-opacity="1" stop-color="rgb(18.855286%, 93.354797%, 68.536377%)" offset="0.359375"/><stop stop-opacity="1" stop-color="rgb(18.800354%, 93.037415%, 68.310547%)" offset="0.378906"/><stop stop-opacity="1" stop-color="rgb(18.751526%, 92.756653%, 68.109131%)" offset="0.394531"/><stop stop-opacity="1" stop-color="rgb(18.702698%, 92.475891%, 67.907715%)" offset="0.410156"/><stop stop-opacity="1" stop-color="rgb(18.655396%, 92.193604%, 67.706299%)" offset="0.425781"/><stop stop-opacity="1" stop-color="rgb(18.606567%, 91.912842%, 67.504883%)" offset="0.441406"/><stop stop-opacity="1" stop-color="rgb(18.557739%, 91.63208%, 67.301941%)" offset="0.457031"/><stop stop-opacity="1" stop-color="rgb(18.508911%, 91.351318%, 67.100525%)" offset="0.472656"/><stop stop-opacity="1" stop-color="rgb(18.461609%, 91.069031%, 66.899109%)" offset="0.488281"/><stop stop-opacity="1" stop-color="rgb(18.418884%, 90.823364%, 66.722107%)" offset="0.503906"/><stop stop-opacity="1" stop-color="rgb(18.382263%, 90.612793%, 66.571045%)" offset="0.515625"/><stop stop-opacity="1" stop-color="rgb(18.345642%, 90.400696%, 66.419983%)" offset="0.527344"/><stop stop-opacity="1" stop-color="rgb(18.310547%, 90.190125%, 66.268921%)" offset="0.539062"/><stop stop-opacity="1" stop-color="rgb(18.273926%, 89.979553%, 66.117859%)" offset="0.550781"/><stop stop-opacity="1" stop-color="rgb(18.237305%, 89.768982%, 65.966797%)" offset="0.5625"/><stop stop-opacity="1" stop-color="rgb(18.200684%, 89.558411%, 65.815735%)" offset="0.574219"/><stop stop-opacity="1" stop-color="rgb(18.164062%, 89.346313%, 65.664673%)" offset="0.585938"/><stop stop-opacity="1" stop-color="rgb(18.127441%, 89.135742%, 65.513611%)" offset="0.597656"/><stop stop-opacity="1" stop-color="rgb(18.092346%, 88.925171%, 65.362549%)" offset="0.609375"/><stop stop-opacity="1" stop-color="rgb(18.055725%, 88.7146%, 65.211487%)" offset="0.621094"/><stop stop-opacity="1" stop-color="rgb(18.006897%, 88.432312%, 65.010071%)" offset="0.632812"/><stop stop-opacity="1" stop-color="rgb(17.945862%, 88.08136%, 64.756775%)" offset="0.652344"/><stop stop-opacity="1" stop-color="rgb(17.886353%, 87.728882%, 64.505005%)" offset="0.671875"/><stop stop-opacity="1" stop-color="rgb(17.831421%, 87.413025%, 64.279175%)" offset="0.691406"/><stop stop-opacity="1" stop-color="rgb(17.782593%, 87.132263%, 64.077759%)" offset="0.707031"/><stop stop-opacity="1" stop-color="rgb(17.735291%, 86.849976%, 63.876343%)" offset="0.722656"/><stop stop-opacity="1" stop-color="rgb(17.686462%, 86.569214%, 63.674927%)" offset="0.738281"/><stop stop-opacity="1" stop-color="rgb(17.643738%, 86.323547%, 63.497925%)" offset="0.753906"/><stop stop-opacity="1" stop-color="rgb(17.607117%, 86.112976%, 63.346863%)" offset="0.765625"/><stop stop-opacity="1" stop-color="rgb(17.570496%, 85.900879%, 63.195801%)" offset="0.777344"/><stop stop-opacity="1" stop-color="rgb(17.5354%, 85.690308%, 63.044739%)" offset="0.789062"/><stop stop-opacity="1" stop-color="rgb(17.498779%, 85.479736%, 62.892151%)" offset="0.800781"/><stop stop-opacity="1" stop-color="rgb(17.462158%, 85.269165%, 62.741089%)" offset="0.8125"/><stop stop-opacity="1" stop-color="rgb(17.41333%, 84.986877%, 62.539673%)" offset="0.824219"/><stop stop-opacity="1" stop-color="rgb(17.353821%, 84.635925%, 62.287903%)" offset="0.84375"/><stop stop-opacity="1" stop-color="rgb(17.298889%, 84.320068%, 62.062073%)" offset="0.863281"/><stop stop-opacity="1" stop-color="rgb(17.256165%, 84.072876%, 61.885071%)" offset="0.878906"/><stop stop-opacity="1" stop-color="rgb(17.219543%, 83.862305%, 61.734009%)" offset="0.890625"/><stop stop-opacity="1" stop-color="rgb(17.182922%, 83.651733%, 61.582947%)" offset="0.902344"/><stop stop-opacity="1" stop-color="rgb(17.13562%, 83.369446%, 61.381531%)" offset="0.914062"/><stop stop-opacity="1" stop-color="rgb(17.080688%, 83.053589%, 61.155701%)" offset="0.933594"/><stop stop-opacity="1" stop-color="rgb(17.037964%, 82.807922%, 60.978699%)" offset="0.949219"/><stop stop-opacity="1" stop-color="rgb(16.989136%, 82.525635%, 60.775757%)" offset="0.960938"/><stop stop-opacity="1" stop-color="rgb(16.929626%, 82.174683%, 60.523987%)" offset="0.980469"/><stop stop-opacity="1" stop-color="rgb(16.899109%, 81.999207%, 60.398865%)" offset="1"/></radialGradient><clipPath id="4b696dadc8"><path d="M 8 12 L 16 12 L 16 15 L 8 15 Z M 8 12 " clip-rule="nonzero"/></clipPath><clipPath id="0ee02854c3"><path d="M 14.117188 14.285156 C 14.257812 14.285156 14.394531 14.257812 14.523438 14.203125 C 14.65625 14.144531 14.769531 14.066406 14.871094 13.964844 C 14.96875 13.863281 15.046875 13.742188 15.101562 13.609375 C 15.15625 13.476562 15.183594 13.335938 15.183594 13.191406 C 15.183594 13.046875 15.15625 12.90625 15.101562 12.773438 C 15.046875 12.636719 14.96875 12.519531 14.871094 12.417969 C 14.769531 12.3125 14.65625 12.234375 14.523438 12.179688 C 14.394531 12.125 14.257812 12.097656 14.117188 12.097656 C 13.976562 12.097656 13.839844 12.125 13.710938 12.179688 C 13.582031 12.234375 13.464844 12.3125 13.367188 12.417969 C 13.265625 12.519531 13.1875 12.636719 13.136719 12.773438 C 13.082031 12.90625 13.054688 13.046875 13.054688 13.191406 C 13.054688 13.335938 13.082031 13.476562 13.136719 13.609375 C 13.1875 13.742188 13.265625 13.863281 13.367188 13.964844 C 13.464844 14.066406 13.582031 14.144531 13.710938 14.203125 C 13.839844 14.257812 13.976562 14.285156 14.117188 14.285156 M 9.96875 14.285156 C 10.109375 14.285156 10.246094 14.257812 10.375 14.203125 C 10.507812 14.144531 10.621094 14.066406 10.722656 13.964844 C 10.820312 13.863281 10.898438 13.742188 10.953125 13.609375 C 11.003906 13.476562 11.03125 13.335938 11.03125 13.191406 C 11.03125 13.046875 11.003906 12.90625 10.953125 12.773438 C 10.898438 12.636719 10.820312 12.519531 10.722656 12.417969 C 10.621094 12.3125 10.507812 12.234375 10.375 12.179688 C 10.246094 12.125 10.109375 12.097656 9.96875 12.097656 C 9.828125 12.097656 9.691406 12.125 9.5625 12.179688 C 9.429688 12.234375 9.316406 12.3125 9.214844 12.417969 C 9.117188 12.519531 9.039062 12.636719 8.984375 12.773438 C 8.933594 12.90625 8.90625 13.046875 8.90625 13.191406 C 8.90625 13.335938 8.933594 13.476562 8.984375 13.609375 C 9.039062 13.742188 9.117188 13.863281 9.214844 13.964844 C 9.316406 14.066406 9.429688 14.144531 9.5625 14.203125 C 9.691406 14.257812 9.828125 14.285156 9.96875 14.285156 " clip-rule="evenodd"/></clipPath><linearGradient x1="24.833" gradientTransform="matrix(0.319174, 0, 0, 0.328341, 4.117431, 7.718425)" y1="13.332998" x2="24.833" gradientUnits="userSpaceOnUse" y2="19.999997" id="afc56a3eba"><stop stop-opacity="1" stop-color="rgb(19.999695%, 100%, 73.298645%)" offset="0"/><stop stop-opacity="1" stop-color="rgb(19.981384%, 99.900818%, 73.228455%)" offset="0.0078125"/><stop stop-opacity="1" stop-color="rgb(19.944763%, 99.703979%, 73.088074%)" offset="0.015625"/><stop stop-opacity="1" stop-color="rgb(19.908142%, 99.508667%, 72.947693%)" offset="0.0234375"/><stop stop-opacity="1" stop-color="rgb(19.869995%, 99.311829%, 72.807312%)" offset="0.03125"/><stop stop-opacity="1" stop-color="rgb(19.833374%, 99.116516%, 72.666931%)" offset="0.0390625"/><stop stop-opacity="1" stop-color="rgb(19.796753%, 98.919678%, 72.525024%)" offset="0.046875"/><stop stop-opacity="1" stop-color="rgb(19.760132%, 98.724365%, 72.384644%)" offset="0.0546875"/><stop stop-opacity="1" stop-color="rgb(19.723511%, 98.527527%, 72.244263%)" offset="0.0625"/><stop stop-opacity="1" stop-color="rgb(19.68689%, 98.332214%, 72.103882%)" offset="0.0703125"/><stop stop-opacity="1" stop-color="rgb(19.650269%, 98.135376%, 71.963501%)" offset="0.078125"/><stop stop-opacity="1" stop-color="rgb(19.613647%, 97.940063%, 71.82312%)" offset="0.0859375"/><stop stop-opacity="1" stop-color="rgb(19.577026%, 97.743225%, 71.681213%)" offset="0.09375"/><stop stop-opacity="1" stop-color="rgb(19.540405%, 97.547913%, 71.540833%)" offset="0.101563"/><stop stop-opacity="1" stop-color="rgb(19.503784%, 97.351074%, 71.400452%)" offset="0.109375"/><stop stop-opacity="1" stop-color="rgb(19.467163%, 97.155762%, 71.260071%)" offset="0.117188"/><stop stop-opacity="1" stop-color="rgb(19.430542%, 96.958923%, 71.11969%)" offset="0.125"/><stop stop-opacity="1" stop-color="rgb(19.393921%, 96.763611%, 70.979309%)" offset="0.132812"/><stop stop-opacity="1" stop-color="rgb(19.3573%, 96.566772%, 70.838928%)" offset="0.140625"/><stop stop-opacity="1" stop-color="rgb(19.319153%, 96.37146%, 70.697021%)" offset="0.148438"/><stop stop-opacity="1" stop-color="rgb(19.282532%, 96.174622%, 70.556641%)" offset="0.15625"/><stop stop-opacity="1" stop-color="rgb(19.245911%, 95.979309%, 70.41626%)" offset="0.164062"/><stop stop-opacity="1" stop-color="rgb(19.20929%, 95.782471%, 70.275879%)" offset="0.171875"/><stop stop-opacity="1" stop-color="rgb(19.172668%, 95.587158%, 70.135498%)" offset="0.179688"/><stop stop-opacity="1" stop-color="rgb(19.136047%, 95.39032%, 69.995117%)" offset="0.1875"/><stop stop-opacity="1" stop-color="rgb(19.099426%, 95.195007%, 69.85321%)" offset="0.195312"/><stop stop-opacity="1" stop-color="rgb(19.062805%, 94.998169%, 69.71283%)" offset="0.203125"/><stop stop-opacity="1" stop-color="rgb(19.026184%, 94.802856%, 69.572449%)" offset="0.210938"/><stop stop-opacity="1" stop-color="rgb(18.989563%, 94.606018%, 69.432068%)" offset="0.21875"/><stop stop-opacity="1" stop-color="rgb(18.952942%, 94.410706%, 69.291687%)" offset="0.226562"/><stop stop-opacity="1" stop-color="rgb(18.916321%, 94.213867%, 69.151306%)" offset="0.234375"/><stop stop-opacity="1" stop-color="rgb(18.8797%, 94.018555%, 69.009399%)" offset="0.242187"/><stop stop-opacity="1" stop-color="rgb(18.843079%, 93.821716%, 68.869019%)" offset="0.25"/><stop stop-opacity="1" stop-color="rgb(18.806458%, 93.626404%, 68.728638%)" offset="0.257813"/><stop stop-opacity="1" stop-color="rgb(18.769836%, 93.429565%, 68.588257%)" offset="0.265625"/><stop stop-opacity="1" stop-color="rgb(18.731689%, 93.234253%, 68.447876%)" offset="0.273438"/><stop stop-opacity="1" stop-color="rgb(18.695068%, 93.037415%, 68.307495%)" offset="0.28125"/><stop stop-opacity="1" stop-color="rgb(18.658447%, 92.842102%, 68.165588%)" offset="0.289062"/><stop stop-opacity="1" stop-color="rgb(18.621826%, 92.645264%, 68.025208%)" offset="0.296875"/><stop stop-opacity="1" stop-color="rgb(18.585205%, 92.449951%, 67.884827%)" offset="0.304688"/><stop stop-opacity="1" stop-color="rgb(18.548584%, 92.253113%, 67.744446%)" offset="0.3125"/><stop stop-opacity="1" stop-color="rgb(18.511963%, 92.0578%, 67.604065%)" offset="0.320313"/><stop stop-opacity="1" stop-color="rgb(18.475342%, 91.860962%, 67.463684%)" offset="0.328125"/><stop stop-opacity="1" stop-color="rgb(18.438721%, 91.664124%, 67.323303%)" offset="0.335938"/><stop stop-opacity="1" stop-color="rgb(18.4021%, 91.468811%, 67.181396%)" offset="0.34375"/><stop stop-opacity="1" stop-color="rgb(18.365479%, 91.271973%, 67.041016%)" offset="0.351562"/><stop stop-opacity="1" stop-color="rgb(18.328857%, 91.07666%, 66.900635%)" offset="0.359375"/><stop stop-opacity="1" stop-color="rgb(18.292236%, 90.879822%, 66.760254%)" offset="0.367188"/><stop stop-opacity="1" stop-color="rgb(18.255615%, 90.684509%, 66.619873%)" offset="0.375"/><stop stop-opacity="1" stop-color="rgb(18.218994%, 90.487671%, 66.479492%)" offset="0.382813"/><stop stop-opacity="1" stop-color="rgb(18.182373%, 90.292358%, 66.337585%)" offset="0.390625"/><stop stop-opacity="1" stop-color="rgb(18.144226%, 90.09552%, 66.197205%)" offset="0.398438"/><stop stop-opacity="1" stop-color="rgb(18.107605%, 89.900208%, 66.056824%)" offset="0.40625"/><stop stop-opacity="1" stop-color="rgb(18.070984%, 89.703369%, 65.916443%)" offset="0.414063"/><stop stop-opacity="1" stop-color="rgb(18.034363%, 89.508057%, 65.776062%)" offset="0.421875"/><stop stop-opacity="1" stop-color="rgb(17.997742%, 89.311218%, 65.635681%)" offset="0.429688"/><stop stop-opacity="1" stop-color="rgb(17.961121%, 89.115906%, 65.493774%)" offset="0.4375"/><stop stop-opacity="1" stop-color="rgb(17.9245%, 88.919067%, 65.353394%)" offset="0.445313"/><stop stop-opacity="1" stop-color="rgb(17.887878%, 88.723755%, 65.213013%)" offset="0.453125"/><stop stop-opacity="1" stop-color="rgb(17.851257%, 88.526917%, 65.072632%)" offset="0.460938"/><stop stop-opacity="1" stop-color="rgb(17.814636%, 88.331604%, 64.932251%)" offset="0.46875"/><stop stop-opacity="1" stop-color="rgb(17.778015%, 88.134766%, 64.79187%)" offset="0.476563"/><stop stop-opacity="1" stop-color="rgb(17.741394%, 87.939453%, 64.649963%)" offset="0.484375"/><stop stop-opacity="1" stop-color="rgb(17.704773%, 87.742615%, 64.509583%)" offset="0.492188"/><stop stop-opacity="1" stop-color="rgb(17.668152%, 87.547302%, 64.369202%)" offset="0.5"/><stop stop-opacity="1" stop-color="rgb(17.631531%, 87.350464%, 64.228821%)" offset="0.507812"/><stop stop-opacity="1" stop-color="rgb(17.593384%, 87.155151%, 64.08844%)" offset="0.515625"/><stop stop-opacity="1" stop-color="rgb(17.556763%, 86.958313%, 63.948059%)" offset="0.523438"/><stop stop-opacity="1" stop-color="rgb(17.520142%, 86.763%, 63.807678%)" offset="0.53125"/><stop stop-opacity="1" stop-color="rgb(17.483521%, 86.566162%, 63.665771%)" offset="0.539062"/><stop stop-opacity="1" stop-color="rgb(17.446899%, 86.37085%, 63.525391%)" offset="0.546875"/><stop stop-opacity="1" stop-color="rgb(17.410278%, 86.174011%, 63.38501%)" offset="0.554688"/><stop stop-opacity="1" stop-color="rgb(17.373657%, 85.978699%, 63.244629%)" offset="0.5625"/><stop stop-opacity="1" stop-color="rgb(17.337036%, 85.78186%, 63.104248%)" offset="0.570312"/><stop stop-opacity="1" stop-color="rgb(17.300415%, 85.586548%, 62.963867%)" offset="0.578125"/><stop stop-opacity="1" stop-color="rgb(17.263794%, 85.389709%, 62.82196%)" offset="0.585938"/><stop stop-opacity="1" stop-color="rgb(17.227173%, 85.194397%, 62.68158%)" offset="0.59375"/><stop stop-opacity="1" stop-color="rgb(17.190552%, 84.997559%, 62.541199%)" offset="0.601562"/><stop stop-opacity="1" stop-color="rgb(17.153931%, 84.802246%, 62.400818%)" offset="0.609375"/><stop stop-opacity="1" stop-color="rgb(17.11731%, 84.605408%, 62.260437%)" offset="0.617188"/><stop stop-opacity="1" stop-color="rgb(17.080688%, 84.410095%, 62.120056%)" offset="0.625"/><stop stop-opacity="1" stop-color="rgb(17.044067%, 84.213257%, 61.978149%)" offset="0.632812"/><stop stop-opacity="1" stop-color="rgb(17.00592%, 84.017944%, 61.837769%)" offset="0.640625"/><stop stop-opacity="1" stop-color="rgb(16.969299%, 83.821106%, 61.697388%)" offset="0.648437"/><stop stop-opacity="1" stop-color="rgb(16.932678%, 83.624268%, 61.557007%)" offset="0.65625"/><stop stop-opacity="1" stop-color="rgb(16.896057%, 83.428955%, 61.416626%)" offset="0.664062"/><stop stop-opacity="1" stop-color="rgb(16.859436%, 83.232117%, 61.276245%)" offset="0.671875"/><stop stop-opacity="1" stop-color="rgb(16.822815%, 83.036804%, 61.134338%)" offset="0.679688"/><stop stop-opacity="1" stop-color="rgb(16.786194%, 82.839966%, 60.993958%)" offset="0.6875"/><stop stop-opacity="1" stop-color="rgb(16.749573%, 82.644653%, 60.853577%)" offset="0.695312"/><stop stop-opacity="1" stop-color="rgb(16.712952%, 82.447815%, 60.713196%)" offset="0.703125"/><stop stop-opacity="1" stop-color="rgb(16.676331%, 82.252502%, 60.572815%)" offset="0.710938"/><stop stop-opacity="1" stop-color="rgb(16.639709%, 82.055664%, 60.432434%)" offset="0.71875"/><stop stop-opacity="1" stop-color="rgb(16.603088%, 81.860352%, 60.292053%)" offset="0.726563"/><stop stop-opacity="1" stop-color="rgb(16.566467%, 81.663513%, 60.150146%)" offset="0.734375"/><stop stop-opacity="1" stop-color="rgb(16.529846%, 81.468201%, 60.009766%)" offset="0.742188"/><stop stop-opacity="1" stop-color="rgb(16.493225%, 81.271362%, 59.869385%)" offset="0.75"/><stop stop-opacity="1" stop-color="rgb(16.455078%, 81.07605%, 59.729004%)" offset="0.757812"/><stop stop-opacity="1" stop-color="rgb(16.418457%, 80.879211%, 59.588623%)" offset="0.765625"/><stop stop-opacity="1" stop-color="rgb(16.381836%, 80.683899%, 59.448242%)" offset="0.773438"/><stop stop-opacity="1" stop-color="rgb(16.345215%, 80.487061%, 59.306335%)" offset="0.78125"/><stop stop-opacity="1" stop-color="rgb(16.308594%, 80.291748%, 59.165955%)" offset="0.789062"/><stop stop-opacity="1" stop-color="rgb(16.271973%, 80.09491%, 59.025574%)" offset="0.796875"/><stop stop-opacity="1" stop-color="rgb(16.235352%, 79.899597%, 58.885193%)" offset="0.804688"/><stop stop-opacity="1" stop-color="rgb(16.19873%, 79.702759%, 58.744812%)" offset="0.8125"/><stop stop-opacity="1" stop-color="rgb(16.162109%, 79.507446%, 58.604431%)" offset="0.820313"/><stop stop-opacity="1" stop-color="rgb(16.125488%, 79.310608%, 58.462524%)" offset="0.828125"/><stop stop-opacity="1" stop-color="rgb(16.088867%, 79.115295%, 58.322144%)" offset="0.835938"/><stop stop-opacity="1" stop-color="rgb(16.052246%, 78.918457%, 58.181763%)" offset="0.84375"/><stop stop-opacity="1" stop-color="rgb(16.015625%, 78.723145%, 58.041382%)" offset="0.851562"/><stop stop-opacity="1" stop-color="rgb(15.979004%, 78.526306%, 57.901001%)" offset="0.859375"/><stop stop-opacity="1" stop-color="rgb(15.942383%, 78.330994%, 57.76062%)" offset="0.867187"/><stop stop-opacity="1" stop-color="rgb(15.905762%, 78.134155%, 57.618713%)" offset="0.875"/><stop stop-opacity="1" stop-color="rgb(15.867615%, 77.938843%, 57.478333%)" offset="0.882812"/><stop stop-opacity="1" stop-color="rgb(15.830994%, 77.742004%, 57.337952%)" offset="0.890625"/><stop stop-opacity="1" stop-color="rgb(15.794373%, 77.546692%, 57.197571%)" offset="0.898438"/><stop stop-opacity="1" stop-color="rgb(15.757751%, 77.349854%, 57.05719%)" offset="0.90625"/><stop stop-opacity="1" stop-color="rgb(15.72113%, 77.154541%, 56.916809%)" offset="0.914062"/><stop stop-opacity="1" stop-color="rgb(15.684509%, 76.957703%, 56.776428%)" offset="0.921875"/><stop stop-opacity="1" stop-color="rgb(15.647888%, 76.76239%, 56.634521%)" offset="0.929688"/><stop stop-opacity="1" stop-color="rgb(15.611267%, 76.565552%, 56.494141%)" offset="0.9375"/><stop stop-opacity="1" stop-color="rgb(15.574646%, 76.370239%, 56.35376%)" offset="0.945312"/><stop stop-opacity="1" stop-color="rgb(15.538025%, 76.173401%, 56.213379%)" offset="0.953125"/><stop stop-opacity="1" stop-color="rgb(15.501404%, 75.978088%, 56.072998%)" offset="0.960937"/><stop stop-opacity="1" stop-color="rgb(15.464783%, 75.78125%, 55.932617%)" offset="0.96875"/><stop stop-opacity="1" stop-color="rgb(15.428162%, 75.585938%, 55.79071%)" offset="0.976562"/><stop stop-opacity="1" stop-color="rgb(15.391541%, 75.389099%, 55.65033%)" offset="0.984375"/><stop stop-opacity="1" stop-color="rgb(15.354919%, 75.192261%, 55.509949%)" offset="0.992188"/><stop stop-opacity="1" stop-color="rgb(15.318298%, 74.996948%, 55.369568%)" offset="1"/></linearGradient><mask id="2b16d85de0"><g filter="url(#a5d69f8fdd)"><rect x="-7.5" width="90" fill="#000000" y="-3" height="36.000001" fill-opacity="0.39"/></g></mask><clipPath id="16e496c516"><rect x="0" width="46" y="0" height="14"/></clipPath></defs><g clip-path="url(#1e8f31e456)"><g clip-path="url(#c1b8e545d2)"><path fill="url(#96d75f5e51)" d="M 14.402344 -0.140625 L -2.300781 12.621094 L 9.789062 29.367188 L 26.492188 16.605469 Z M 14.402344 -0.140625 " fill-rule="nonzero"/></g></g><g clip-path="url(#4b696dadc8)"><g clip-path="url(#0ee02854c3)"><path fill="url(#afc56a3eba)" d="M 8.90625 12.097656 L 8.90625 14.285156 L 15.183594 14.285156 L 15.183594 12.097656 Z M 8.90625 12.097656 " fill-rule="nonzero"/></g></g><g mask="url(#2b16d85de0)"><g transform="matrix(1, 0, 0, 1, 20, 5)"><g clip-path="url(#16e496c516)"><g fill="#000000" fill-opacity="1"><g transform="translate(1.013003, 9.959036)"><g><path d="M 2.609375 0 L 1.328125 0 L 0.171875 -4.859375 L 1.3125 -4.859375 L 2.03125 -1.578125 L 2.109375 -1.578125 L 3.046875 -4.859375 L 4.09375 -4.859375 L 5.0625 -1.578125 L 5.15625 -1.578125 L 5.84375 -4.859375 L 6.9375 -4.859375 L 5.796875 0 L 4.515625 0 L 3.59375 -3.3125 L 3.5 -3.3125 Z M 2.609375 0 "/></g></g></g><g fill="#000000" fill-opacity="1"><g transform="translate(8.120915, 9.959036)"><g><path d="M 0.703125 0 L 0.703125 -6.8125 L 1.921875 -6.8125 L 1.921875 -4.234375 L 2.015625 -4.21875 C 2.179688 -4.445312 2.378906 -4.625 2.609375 -4.75 C 2.847656 -4.882812 3.132812 -4.953125 3.46875 -4.953125 C 4.539062 -4.953125 5.078125 -4.34375 5.078125 -3.125 L 5.078125 0 L 3.84375 0 L 3.84375 -2.984375 C 3.84375 -3.304688 3.773438 -3.539062 3.640625 -3.6875 C 3.515625 -3.84375 3.3125 -3.921875 3.03125 -3.921875 C 2.6875 -3.921875 2.414062 -3.804688 2.21875 -3.578125 C 2.019531 -3.347656 1.921875 -2.992188 1.921875 -2.515625 L 1.921875 0 Z M 0.703125 0 "/></g></g></g><g fill="#000000" fill-opacity="1"><g transform="translate(13.81429, 9.959036)"><g><path d="M 1.3125 -5.453125 C 1.09375 -5.453125 0.910156 -5.515625 0.765625 -5.640625 C 0.628906 -5.773438 0.5625 -5.953125 0.5625 -6.171875 C 0.5625 -6.378906 0.628906 -6.546875 0.765625 -6.671875 C 0.910156 -6.804688 1.09375 -6.875 1.3125 -6.875 C 1.457031 -6.875 1.585938 -6.84375 1.703125 -6.78125 C 1.816406 -6.71875 1.90625 -6.632812 1.96875 -6.53125 C 2.03125 -6.425781 2.0625 -6.304688 2.0625 -6.171875 C 2.0625 -6.023438 2.03125 -5.894531 1.96875 -5.78125 C 1.90625 -5.675781 1.816406 -5.59375 1.703125 -5.53125 C 1.585938 -5.476562 1.457031 -5.453125 1.3125 -5.453125 Z M 0.703125 0 L 0.703125 -4.859375 L 1.921875 -4.859375 L 1.921875 0 Z M 0.703125 0 "/></g></g></g><g fill="#000000" fill-opacity="1"><g transform="translate(16.431833, 9.959036)"><g><path d="M 4.078125 0 L 0.25 0 L 0.25 -1.015625 L 2.609375 -3.8125 L 2.578125 -3.890625 L 0.359375 -3.890625 L 0.359375 -4.875 L 4.046875 -4.875 L 4.046875 -3.859375 L 1.6875 -1.0625 L 1.71875 -0.96875 L 4.078125 -0.96875 Z M 4.078125 0 "/></g></g></g><g fill="#000000" fill-opacity="1"><g transform="translate(20.767964, 9.959036)"><g><path d="M 4.078125 0 L 0.25 0 L 0.25 -1.015625 L 2.609375 -3.8125 L 2.578125 -3.890625 L 0.359375 -3.890625 L 0.359375 -4.875 L 4.046875 -4.875 L 4.046875 -3.859375 L 1.6875 -1.0625 L 1.71875 -0.96875 L 4.078125 -0.96875 Z M 4.078125 0 "/></g></g></g><g fill="#000000" fill-opacity="1"><g transform="translate(25.104095, 9.959036)"><g><path d="M 2.828125 0.09375 C 2.359375 0.09375 1.941406 -0.00390625 1.578125 -0.203125 C 1.222656 -0.398438 0.941406 -0.6875 0.734375 -1.0625 C 0.535156 -1.4375 0.4375 -1.894531 0.4375 -2.4375 C 0.4375 -2.96875 0.535156 -3.421875 0.734375 -3.796875 C 0.941406 -4.179688 1.222656 -4.46875 1.578125 -4.65625 C 1.941406 -4.851562 2.351562 -4.953125 2.8125 -4.953125 C 3.84375 -4.953125 4.5 -4.582031 4.78125 -3.84375 L 3.953125 -3.234375 L 3.859375 -3.234375 C 3.753906 -3.460938 3.617188 -3.632812 3.453125 -3.75 C 3.296875 -3.863281 3.082031 -3.921875 2.8125 -3.921875 C 2.457031 -3.921875 2.179688 -3.796875 1.984375 -3.546875 C 1.785156 -3.304688 1.6875 -2.9375 1.6875 -2.4375 C 1.6875 -1.9375 1.785156 -1.5625 1.984375 -1.3125 C 2.191406 -1.0625 2.472656 -0.9375 2.828125 -0.9375 C 3.097656 -0.9375 3.320312 -1.007812 3.5 -1.15625 C 3.6875 -1.300781 3.820312 -1.503906 3.90625 -1.765625 L 4 -1.78125 L 4.859375 -1.3125 C 4.734375 -0.894531 4.503906 -0.554688 4.171875 -0.296875 C 3.835938 -0.0351562 3.390625 0.09375 2.828125 0.09375 Z M 2.828125 0.09375 "/></g></g></g><g fill="#000000" fill-opacity="1"><g transform="translate(30.114447, 9.959036)"><g><path d="M 0.703125 0 L 0.703125 -6.8125 L 1.921875 -6.8125 L 1.921875 -4.234375 L 2.015625 -4.21875 C 2.179688 -4.445312 2.378906 -4.625 2.609375 -4.75 C 2.847656 -4.882812 3.132812 -4.953125 3.46875 -4.953125 C 4.539062 -4.953125 5.078125 -4.34375 5.078125 -3.125 L 5.078125 0 L 3.84375 0 L 3.84375 -2.984375 C 3.84375 -3.304688 3.773438 -3.539062 3.640625 -3.6875 C 3.515625 -3.84375 3.3125 -3.921875 3.03125 -3.921875 C 2.6875 -3.921875 2.414062 -3.804688 2.21875 -3.578125 C 2.019531 -3.347656 1.921875 -2.992188 1.921875 -2.515625 L 1.921875 0 Z M 0.703125 0 "/></g></g></g><g fill="#000000" fill-opacity="1"><g transform="translate(35.807823, 9.959036)"><g><path d="M 1.890625 0.09375 C 1.578125 0.09375 1.304688 0.0351562 1.078125 -0.078125 C 0.847656 -0.191406 0.671875 -0.359375 0.546875 -0.578125 C 0.429688 -0.804688 0.375 -1.078125 0.375 -1.390625 C 0.375 -1.671875 0.429688 -1.910156 0.546875 -2.109375 C 0.671875 -2.304688 0.863281 -2.46875 1.125 -2.59375 C 1.382812 -2.71875 1.722656 -2.8125 2.140625 -2.875 C 2.429688 -2.925781 2.648438 -2.976562 2.796875 -3.03125 C 2.953125 -3.09375 3.054688 -3.15625 3.109375 -3.21875 C 3.160156 -3.289062 3.1875 -3.382812 3.1875 -3.5 C 3.1875 -3.644531 3.128906 -3.757812 3.015625 -3.84375 C 2.910156 -3.925781 2.734375 -3.96875 2.484375 -3.96875 C 2.210938 -3.96875 1.953125 -3.90625 1.703125 -3.78125 C 1.460938 -3.664062 1.253906 -3.507812 1.078125 -3.3125 L 1 -3.3125 L 0.484375 -4.09375 C 0.722656 -4.363281 1.019531 -4.570312 1.375 -4.71875 C 1.738281 -4.875 2.128906 -4.953125 2.546875 -4.953125 C 3.191406 -4.953125 3.65625 -4.816406 3.9375 -4.546875 C 4.226562 -4.273438 4.375 -3.882812 4.375 -3.375 L 4.375 -1.265625 C 4.375 -1.046875 4.472656 -0.9375 4.671875 -0.9375 C 4.742188 -0.9375 4.8125 -0.953125 4.875 -0.984375 L 4.9375 -0.96875 L 5.03125 -0.109375 C 4.96875 -0.0664062 4.875 -0.03125 4.75 0 C 4.625 0.0195312 4.492188 0.03125 4.359375 0.03125 C 4.066406 0.03125 3.835938 -0.0195312 3.671875 -0.125 C 3.503906 -0.238281 3.390625 -0.414062 3.328125 -0.65625 L 3.234375 -0.671875 C 2.992188 -0.160156 2.546875 0.09375 1.890625 0.09375 Z M 2.28125 -0.8125 C 2.5625 -0.8125 2.785156 -0.90625 2.953125 -1.09375 C 3.128906 -1.289062 3.21875 -1.554688 3.21875 -1.890625 L 3.21875 -2.390625 L 3.125 -2.40625 C 3.050781 -2.34375 2.953125 -2.289062 2.828125 -2.25 C 2.710938 -2.21875 2.546875 -2.179688 2.328125 -2.140625 C 2.066406 -2.097656 1.875 -2.019531 1.75 -1.90625 C 1.632812 -1.800781 1.578125 -1.648438 1.578125 -1.453125 C 1.578125 -1.242188 1.640625 -1.082031 1.765625 -0.96875 C 1.890625 -0.863281 2.0625 -0.8125 2.28125 -0.8125 Z M 2.28125 -0.8125 "/></g></g></g><g fill="#000000" fill-opacity="1"><g transform="translate(40.932747, 9.959036)"><g><path d="M 3.359375 -1.15625 L 3.671875 -0.25 C 3.535156 -0.144531 3.367188 -0.0625 3.171875 0 C 2.972656 0.0625 2.75 0.09375 2.5 0.09375 C 1.96875 0.09375 1.566406 -0.046875 1.296875 -0.328125 C 1.023438 -0.617188 0.890625 -1.039062 0.890625 -1.59375 L 0.890625 -3.890625 L 0.140625 -3.890625 L 0.140625 -4.875 L 0.890625 -4.875 L 0.890625 -5.8125 L 2.109375 -6.015625 L 2.109375 -4.875 L 3.484375 -4.875 L 3.484375 -3.890625 L 2.109375 -3.890625 L 2.109375 -1.671875 C 2.109375 -1.429688 2.15625 -1.253906 2.25 -1.140625 C 2.351562 -1.035156 2.5 -0.984375 2.6875 -0.984375 C 2.90625 -0.984375 3.097656 -1.039062 3.265625 -1.15625 Z M 3.359375 -1.15625 "/></g></g></g></g></g></g></svg>